<svg xmlns="http://www.w3.org/2000/svg" viewBox="0 0 351.11 261.79"><defs><style>.cls-1{fill:#dd3e3e;}.cls-2{fill:#fff;stroke:#000;stroke-miterlimit:10;}.cls-3{fill:#0df97d;}</style></defs><title>todo_logo</title><g id="Layer_2" data-name="Layer 2"><g id="Layer_1-2" data-name="Layer 1"><path class="cls-1" d="M241.18,8.56H17.87a12.17,12.17,0,0,0-12,12V243.87a12.17,12.17,0,0,0,12,12H241.18a12.17,12.17,0,0,0,12-12V20.56c0-15.44-24-15.47-24,0V243.87l12-12H17.87l12,12V20.56l-12,12H241.18C256.62,32.56,256.65,8.56,241.18,8.56Z"/><path class="cls-2" d="M107.19,154.55"/><path class="cls-2" d="M107.19,243.87"/><path class="cls-3" d="M5.14,167.28,83.3,245.43,94.47,256.6c6.67,6.67,18.88,7.16,25.46,0s7.11-18.34,0-25.46L41.76,153,30.6,141.82c-6.67-6.67-18.88-7.16-25.46,0s-7.11,18.34,0,25.46Z"/><path class="cls-3" d="M119.92,256.6l76.85-76.85L318.21,58.31,345.92,30.6c6.67-6.67,7.16-18.88,0-25.46s-18.34-7.11-25.46,0L243.62,82,122.18,203.43,94.47,231.14c-6.67,6.67-7.16,18.88,0,25.46s18.34,7.11,25.46,0Z"/></g></g></svg>